<svg width="30" height="31" viewBox="0 0 30 31" fill="none" xmlns="http://www.w3.org/2000/svg">
<path d="M27.56 13.5313V17.2907C27.56 22.3032 25.12 24.8095 20.24 24.8095H19.63C19.2518 24.8095 18.8858 24.9975 18.654 25.3108L16.824 27.817C16.0188 28.9198 14.7012 28.9198 13.896 27.817L12.066 25.3108C11.8708 25.0351 11.4194 24.8095 11.09 24.8095H10.48C5.60003 24.8095 3.16003 23.5564 3.16003 17.2907V11.0251C3.16003 6.01252 5.60003 3.50626 10.48 3.50626H17.8" stroke="white" stroke-width="1.5" stroke-miterlimit="10" stroke-linecap="round" stroke-linejoin="round"/>
<path d="M24.51 9.77192C26.1944 9.77192 27.56 8.3693 27.56 6.63909C27.56 4.90887 26.1944 3.50626 24.51 3.50626C22.8255 3.50626 21.46 4.90887 21.46 6.63909C21.46 8.3693 22.8255 9.77192 24.51 9.77192Z" fill="#F72585" stroke="white" stroke-width="1.5" stroke-linecap="round" stroke-linejoin="round"/>
<path d="M20.2356 14.7845H20.2466" stroke="white" stroke-width="2" stroke-linecap="round" stroke-linejoin="round"/>
<path d="M15.3545 14.7845H15.3655" stroke="white" stroke-width="2" stroke-linecap="round" stroke-linejoin="round"/>
<path d="M10.4733 14.7845H10.4843" stroke="white" stroke-width="2" stroke-linecap="round" stroke-linejoin="round"/>
</svg>
